<svg width="19" height="26" viewBox="0 0 19 26" fill="none" xmlns="http://www.w3.org/2000/svg">
<path d="M18.9504 10.4522C19.3456 7.72025 17.3336 6.2517 14.5824 5.27203L15.4749 1.5713L13.2957 1.00997L12.4269 4.61326C11.854 4.46555 11.2657 4.32638 10.6809 4.1884L11.5561 0.56133L9.37831 0L8.48529 3.69952C8.01122 3.58794 7.54559 3.47766 7.09384 3.36146L7.09636 3.34982L4.09127 2.57405L3.51159 4.98012C3.51159 4.98012 5.12833 5.36324 5.09426 5.38682C5.9767 5.6145 6.13628 6.21838 6.10978 6.69703L5.0931 10.913C5.15386 10.929 5.23268 10.9521 5.31965 10.9882C5.24695 10.9695 5.16959 10.9491 5.08931 10.9293L3.66427 16.8353C3.55643 17.1124 3.2827 17.5284 2.66575 17.3704C2.68759 17.4031 1.08191 16.9618 1.08191 16.9618L0 19.5405L2.83581 20.2713C3.36337 20.4081 3.88035 20.5512 4.38946 20.6857L3.48771 24.4289L5.66434 24.9902L6.55735 21.2868C7.15198 21.4537 7.72905 21.6076 8.29397 21.7527L7.40397 25.4387L9.58322 26L10.4849 22.2639C14.2008 22.9909 16.9949 22.6977 18.1709 19.2232C19.1186 16.4258 18.1237 14.8122 16.1688 13.76C17.5927 13.4205 18.6644 12.4521 18.9504 10.4522ZM13.9715 17.6697C13.2981 20.4671 8.74194 18.9549 7.26478 18.5757L8.46142 13.6166C9.93848 13.9978 14.6752 14.7522 13.9715 17.6697ZM14.6454 10.4117C14.0311 12.9562 10.239 11.6635 9.00887 11.3465L10.0938 6.84895C11.3239 7.16594 15.2852 7.75757 14.6454 10.4117Z" fill="#FFA220"/>
</svg>
