<svg width="24" height="25" viewBox="0 0 24 25" fill="none" xmlns="http://www.w3.org/2000/svg">
<path fill-rule="evenodd" clip-rule="evenodd" d="M14.4416 12.948C14.3052 12.9591 13.6006 13.0048 12.029 13.0048C10.7789 13.0048 9.89138 12.964 9.58 12.948C4.74909 12.7173 1.14324 11.8043 1.14324 10.7112C1.14324 9.61813 4.74909 8.70639 9.58 8.47198V12.0387C9.89592 12.0634 10.8005 12.1214 12.0506 12.1214C13.5506 12.1214 14.3018 12.0535 14.437 12.04V8.47445C19.2577 8.70763 22.8556 9.6206 22.8556 10.7112C22.8556 11.8019 19.2589 12.7148 14.437 12.9468L14.4416 12.948ZM14.4416 8.10556V4.91387H21.1692V0.0467529H2.85241V4.91387H9.57886V8.10433C4.11156 8.37698 0 9.55274 0 10.9617C0 12.3706 4.11156 13.5451 9.57886 13.819V24.0468H14.4405V13.8153C19.8953 13.5427 24 12.3681 24 10.9604C24 9.55274 19.8987 8.37822 14.4405 8.10433L14.4416 8.10556Z" fill="white"/>
</svg>
