<svg width="18" height="24" viewBox="0 0 18 24" fill="none" xmlns="http://www.w3.org/2000/svg">
<path fill-rule="evenodd" clip-rule="evenodd" d="M12.9373 0.937258L17.0627 5.06274C17.4086 5.40865 17.5816 5.5816 17.7053 5.78343C17.7856 5.91456 17.8505 6.05435 17.8987 6.2H14.2C13.6267 6.2 13.2449 6.19938 12.9515 6.17541C12.6675 6.1522 12.5375 6.11116 12.4552 6.06921C12.2294 5.95416 12.0458 5.77058 11.9308 5.54479C11.8888 5.46245 11.8478 5.33248 11.8246 5.04845C11.8006 4.75508 11.8 4.37325 11.8 3.8V0.101295C11.9456 0.149501 12.0854 0.214365 12.2166 0.29472C12.4184 0.418402 12.5914 0.591351 12.9372 0.937247L12.9373 0.937258ZM10.2 0H8.2C7.0799 0 6.51984 0 6.09202 0.217987C5.71569 0.409734 5.40973 0.715695 5.21799 1.09202C5 1.51984 5 2.0799 5 3.2V5.42001H6.00005L6.03375 5.42C6.16789 5.41991 6.31484 5.41981 6.46247 5.43185C7.20918 5.49271 7.91799 5.78631 8.48904 6.27128C8.60193 6.36716 8.70577 6.47113 8.80056 6.56605L8.82438 6.58989L13.4102 11.1757L13.434 11.1995L13.434 11.1995L13.434 11.1995C13.5289 11.2943 13.6329 11.3981 13.7288 11.511C14.2138 12.0821 14.5073 12.7909 14.5682 13.5376C14.5802 13.6852 14.5802 13.8322 14.5801 13.9663L14.58 14L14.5801 17H14.8C15.9201 17 16.4802 17 16.908 16.782C17.2843 16.5903 17.5903 16.2843 17.782 15.908C18 15.4802 18 14.9201 18 13.8V7.8H14.2L14.1679 7.8C13.6352 7.80001 13.1876 7.80002 12.8213 7.77009C12.4383 7.7388 12.0743 7.67085 11.7288 7.49482C11.202 7.22637 10.7736 6.79803 10.5052 6.27117C10.3291 5.92569 10.2612 5.56172 10.2299 5.17874C10.2 4.81244 10.2 4.36482 10.2 3.83212L10.2 3.8V0ZM12.0627 12.0627L7.93726 7.93726C7.59135 7.59135 7.4184 7.4184 7.21657 7.29472C7.08544 7.21437 6.94565 7.1495 6.8 7.1013V10.8C6.8 11.3733 6.80062 11.7551 6.82459 12.0485C6.8478 12.3325 6.88884 12.4625 6.93079 12.5448C7.04584 12.7706 7.22942 12.9542 7.45521 13.0692C7.53755 13.1112 7.66752 13.1522 7.95155 13.1754C8.24492 13.1994 8.62675 13.2 9.2 13.2H12.8987C12.8505 13.0544 12.7856 12.9146 12.7053 12.7834C12.5816 12.5816 12.4087 12.4087 12.0628 12.0628L12.0627 12.0627ZM3.2 7H5.2V10.8L5.2 10.8321C5.19999 11.3648 5.19998 11.8124 5.22991 12.1787C5.2612 12.5617 5.32915 12.9257 5.50518 13.2712C5.77363 13.798 6.20197 14.2264 6.72883 14.4948C7.07431 14.6709 7.43828 14.7388 7.82126 14.7701C8.18756 14.8 8.63519 14.8 9.16789 14.8L9.2 14.8H13V20.8C13 21.9201 13 22.4802 12.782 22.908C12.5903 23.2843 12.2843 23.5903 11.908 23.782C11.4802 24 10.9201 24 9.8 24H3.2C2.0799 24 1.51984 24 1.09202 23.782C0.715695 23.5903 0.409734 23.2843 0.217987 22.908C0 22.4802 0 21.9201 0 20.8V10.2C0 9.0799 0 8.51984 0.217987 8.09202C0.409734 7.71569 0.715695 7.40973 1.09202 7.21799C1.51984 7 2.0799 7 3.2 7Z" fill="#007AFF"/>
</svg>
