<svg width="29" height="29" viewBox="0 0 29 29" fill="none" xmlns="http://www.w3.org/2000/svg">
<path d="M17.4197 8.01733C16.6424 8.01733 16.0122 8.64751 16.0122 9.42485C16.0122 10.2022 16.6424 10.8324 17.4197 10.8324C18.1971 10.8324 18.8272 10.2022 18.8272 9.42485C18.8272 8.64751 18.1971 8.01733 17.4197 8.01733Z" fill="white"/>
<path d="M10.3824 9.42485C10.3824 8.64751 11.0126 8.01733 11.79 8.01733C12.5673 8.01733 13.1975 8.64751 13.1975 9.42485C13.1975 10.2022 12.5673 10.8324 11.79 10.8324C11.0126 10.8324 10.3824 10.2022 10.3824 9.42485Z" fill="white"/>
<path d="M15.3088 3.7947C15.3088 3.40603 14.9937 3.09094 14.6051 3.09094C14.2164 3.09094 13.9013 3.40603 13.9013 3.7947V4.49846H9.67877C8.51275 4.49846 7.5675 5.4437 7.5675 6.60973V12.2398C7.5675 13.4058 8.51275 14.351 9.67877 14.351H19.5314C20.6973 14.351 21.6426 13.4058 21.6426 12.2398V6.60973C21.6426 5.4437 20.6973 4.49846 19.5314 4.49846H15.3088V3.7947ZM9.67877 5.90597H19.5314C19.92 5.90597 20.2351 6.22105 20.2351 6.60973V12.2398C20.2351 12.6284 19.92 12.9435 19.5314 12.9435H9.67877C9.2901 12.9435 8.97502 12.6284 8.97502 12.2398V6.60973C8.97502 6.22105 9.2901 5.90597 9.67877 5.90597Z" fill="white"/>
<path d="M14.9571 25.6086C18.6386 25.5615 20.8615 24.7707 22.1661 23.5804C23.398 22.4564 23.6988 21.0805 23.7466 19.9835H23.7541V19.013C23.7541 17.6065 22.614 16.4664 21.2075 16.4664H16.7165V16.462H12.494V16.4664H8.00303C6.59658 16.4664 5.45642 17.6065 5.45642 19.013V19.9835H5.46392C5.51175 21.0805 5.81248 22.4564 7.04438 23.5804C8.34895 24.7707 10.5719 25.5615 14.2534 25.6086V25.6109H14.9571V25.6086ZM8.00303 17.8739H21.2075C21.8366 17.8739 22.3466 18.3839 22.3466 19.013V19.6289C22.3466 20.5996 22.1619 21.6788 21.2175 22.5407C20.2498 23.4236 18.3499 24.2034 14.6053 24.2034C10.8605 24.2034 8.96069 23.4236 7.9931 22.5407C7.04864 21.6788 6.86393 20.5996 6.86393 19.6289V19.013C6.86393 18.3839 7.37392 17.8739 8.00303 17.8739Z" fill="white"/>
</svg>
