<svg width="21" height="21" viewBox="0 0 21 21" fill="none" xmlns="http://www.w3.org/2000/svg">
<path fill-rule="evenodd" clip-rule="evenodd" d="M17 2C17 0.895431 17.8954 0 19 0C20.1046 0 21 0.895431 21 2V17C21 18.1046 20.1046 19 19 19C17.8954 19 17 18.1046 17 17V2ZM16 16.5541V2.5C16 2.5 13.5 4.99999 8 4.99999H4.49875C2.01347 4.99999 0 7.01472 0 9.5C0 11.9853 2.01346 14 4.49874 14L8 14C13.5 14 16 16.5541 16 16.5541ZM5.9653 19.0816L4.29517 15.5H8.70868L9.59053 17.3911C10.0573 18.3922 9.62423 19.5822 8.62315 20.049C7.62207 20.5158 6.43211 20.0827 5.9653 19.0816Z" fill="white"/>
</svg>
