<svg width="31" height="36" viewBox="0 0 31 36" fill="none" xmlns="http://www.w3.org/2000/svg">
<path d="M27.0184 11.4445C27.0184 17.7651 21.8946 22.889 15.574 22.889C9.25342 22.889 4.12958 17.7651 4.12958 11.4445C4.12958 5.12383 9.25342 -6.10352e-05 15.574 -6.10352e-05C21.8946 -6.10352e-05 27.0184 5.12383 27.0184 11.4445Z" fill="#EFEFF4"/>
<path fill-rule="evenodd" clip-rule="evenodd" d="M0.998596 29.062C0.049102 27.7738 -0.0399748 26.0546 0.693654 24.6323C3.65471 18.8918 9.09042 15.0449 15.3058 15.0449C21.5214 15.0449 26.9573 18.8922 29.9183 24.6331C30.6519 26.0554 30.5627 27.7746 29.6131 29.0628C26.5299 33.2453 21.273 35.9999 15.3062 35.9999C9.33892 35.9999 4.08169 33.245 0.998596 29.062Z" fill="#EFEFF4"/>
<path d="M23.9041 11.014C23.9041 15.6135 20.1754 19.3422 15.576 19.3422C10.9765 19.3422 7.24786 15.6135 7.24786 11.014C7.24786 7.88914 11.0919 5.16624 13.5568 3.74147C14.8135 3.01505 16.3385 3.01505 17.5952 3.74147C20.06 5.16624 23.9041 7.88914 23.9041 11.014Z" fill="black"/>
<path d="M14.2498 30.0886C14.2498 30.9681 14.9628 31.681 15.8422 31.681C16.7217 31.681 17.4346 30.9681 17.4346 30.0886L14.2498 30.0886ZM14.2498 16.6561L14.2498 30.0886L17.4346 30.0886L17.4346 16.6561L14.2498 16.6561Z" fill="black"/>
<ellipse cx="15.5748" cy="11.0145" rx="5.64161" ry="5.64167" fill="#EFEFF4"/>
<path d="M27.0184 11.4445C27.0184 17.7651 21.8946 22.889 15.574 22.889C9.25342 22.889 4.12958 17.7651 4.12958 11.4445C4.12958 5.12383 9.25342 -6.10352e-05 15.574 -6.10352e-05C21.8946 -6.10352e-05 27.0184 5.12383 27.0184 11.4445Z" fill="#EFEFF4"/>
<path fill-rule="evenodd" clip-rule="evenodd" d="M0.998596 29.062C0.049102 27.7738 -0.0399748 26.0546 0.693654 24.6323C3.65471 18.8918 9.09042 15.0449 15.3058 15.0449C21.5214 15.0449 26.9573 18.8922 29.9183 24.6331C30.6519 26.0554 30.5627 27.7746 29.6131 29.0628C26.5299 33.2453 21.273 35.9999 15.3062 35.9999C9.33892 35.9999 4.08169 33.245 0.998596 29.062Z" fill="#EFEFF4"/>
<path d="M23.9041 11.014C23.9041 15.6135 20.1754 19.3422 15.576 19.3422C10.9765 19.3422 7.24786 15.6135 7.24786 11.014C7.24786 7.88914 11.0919 5.16624 13.5568 3.74147C14.8135 3.01505 16.3385 3.01505 17.5952 3.74147C20.06 5.16624 23.9041 7.88914 23.9041 11.014Z" fill="black"/>
<path d="M14.2498 30.0886C14.2498 30.9681 14.9628 31.681 15.8422 31.681C16.7217 31.681 17.4346 30.9681 17.4346 30.0886L14.2498 30.0886ZM14.2498 16.6561L14.2498 30.0886L17.4346 30.0886L17.4346 16.6561L14.2498 16.6561Z" fill="black"/>
<ellipse cx="15.5748" cy="11.0145" rx="5.64161" ry="5.64167" fill="#EFEFF4"/>
<path fill-rule="evenodd" clip-rule="evenodd" d="M19.3515 13.9764C19.1703 14.2035 19.0798 14.317 18.9813 14.3267C18.9125 14.3335 18.8382 14.3062 18.7901 14.2565C18.7212 14.1855 18.7263 14.0187 18.7363 13.6853C18.7618 12.8405 18.6421 11.9769 18.3603 11.1281C17.7529 9.29861 16.5011 7.86424 14.9408 6.99351C14.6502 6.83136 14.5049 6.75028 14.4792 6.65474C14.4613 6.58803 14.476 6.51024 14.5171 6.4547C14.5759 6.37515 14.7196 6.35565 15.0071 6.31667C16.9219 6.05695 18.8807 6.99214 19.8367 8.79971C20.7466 10.52 20.4922 12.5463 19.3515 13.9764Z" fill="black"/>
</svg>
