<svg width="20" height="20" viewBox="0 0 20 20" fill="none" xmlns="http://www.w3.org/2000/svg">
<path d="M19.9183 7.58422C19.8557 7.40308 19.742 7.24397 19.5908 7.1262C19.4396 7.00842 19.2575 6.93704 19.0666 6.9207L13.4316 6.09872L10.9062 0.978701C10.8252 0.811264 10.6985 0.670056 10.5409 0.571251C10.3833 0.472447 10.201 0.420044 10.0149 0.420044C9.82891 0.420044 9.64663 0.472447 9.48899 0.571251C9.33136 0.670056 9.20474 0.811264 9.12365 0.978701L6.5983 6.08882L0.963298 6.9207C0.78001 6.94675 0.607693 7.02366 0.465903 7.14269C0.324113 7.26172 0.218528 7.41812 0.161128 7.59413C0.108586 7.76612 0.103871 7.94918 0.147489 8.12365C0.191107 8.29812 0.281412 8.45743 0.408711 8.58446L4.49879 12.5458L3.50846 18.1709C3.4731 18.3566 3.49161 18.5485 3.56181 18.7239C3.632 18.8994 3.75094 19.0512 3.90459 19.1612C4.05434 19.2683 4.23098 19.3315 4.41466 19.3437C4.59834 19.356 4.7818 19.3168 4.94444 19.2305L10.0149 16.5864L15.0656 19.2404C15.2046 19.3189 15.3616 19.3598 15.5212 19.3593C15.731 19.36 15.9356 19.2941 16.1055 19.1711C16.2591 19.0611 16.3781 18.9093 16.4483 18.7338C16.5185 18.5584 16.537 18.3665 16.5016 18.1808L15.5113 12.5557L19.6014 8.59436C19.7444 8.47322 19.85 8.314 19.9061 8.13519C19.9622 7.95639 19.9664 7.76533 19.9183 7.58422Z" fill="white"/>
</svg>
