<svg width="10" height="10" viewBox="0 0 10 10" fill="none" xmlns="http://www.w3.org/2000/svg">
<path fill-rule="evenodd" clip-rule="evenodd" d="M3.35243 2.96317L4.50696 0.709905C4.64015 0.449959 4.96218 0.345526 5.22623 0.476646C5.32989 0.528122 5.41375 0.611372 5.46517 0.713851L6.55552 2.88687C6.64459 3.06438 6.81872 3.18558 7.01842 3.20906L9.30168 3.47749C9.61165 3.51393 9.83292 3.79084 9.79591 4.09599C9.78066 4.22167 9.72235 4.33847 9.6306 4.42713L7.8259 6.17093C7.75303 6.24134 7.71772 6.3412 7.73043 6.44093L8.03034 8.79516C8.07328 9.13218 7.83055 9.43966 7.4882 9.48193C7.35846 9.49795 7.22688 9.47349 7.11201 9.41199L5.20531 8.39127C5.06737 8.31742 4.9013 8.3153 4.76146 8.38559L2.78598 9.37862C2.50796 9.51838 2.16749 9.4098 2.02553 9.13609C1.97241 9.03369 1.95282 8.9176 1.96946 8.80379L2.12735 7.72367C2.20457 7.19538 2.53809 6.73713 3.02139 6.49527L5.21548 5.39727C5.27407 5.36795 5.29742 5.29743 5.26764 5.23976C5.24457 5.19507 5.19517 5.16979 5.14476 5.17687L2.4614 5.5535C2.05119 5.61107 1.63519 5.4976 1.31358 5.24041L0.419811 4.52567C0.164757 4.3217 0.125953 3.95281 0.33314 3.70172C0.429489 3.58495 0.56778 3.50916 0.719351 3.49004L3.01071 3.20107C3.15767 3.18253 3.2857 3.0934 3.35243 2.96317Z" fill="white"/>
</svg>
