<svg width="20" height="21" viewBox="0 0 20 21" fill="none" xmlns="http://www.w3.org/2000/svg">
<path fill-rule="evenodd" clip-rule="evenodd" d="M10 0.222656C15.5228 0.222656 20 4.29279 20 9.31357C20 14.3343 15.5228 18.4045 10 18.4045C9.15326 18.4045 8.3311 18.3088 7.54589 18.1287C7.39736 18.0946 7.22871 18.2504 6.94717 18.5105C6.60669 18.825 6.1011 19.292 5.26631 19.7601C4.19977 20.3583 2.72206 20.3064 2.47197 20.2015C2.2322 20.1009 2.41675 19.901 2.74176 19.5489C2.96661 19.3054 3.25868 18.989 3.52398 18.5823C4.17277 17.5877 3.90469 16.4037 3.61362 16.1906C1.33757 14.5243 0 12.1771 0 9.31357C0 4.29279 4.47715 0.222656 10 0.222656ZM5 10.8427C5.82843 10.8427 6.5 10.1711 6.5 9.34265C6.5 8.51422 5.82843 7.84265 5 7.84265C4.17157 7.84265 3.5 8.51422 3.5 9.34265C3.5 10.1711 4.17157 10.8427 5 10.8427ZM10 10.8427C10.8284 10.8427 11.5 10.1711 11.5 9.34265C11.5 8.51422 10.8284 7.84265 10 7.84265C9.17157 7.84265 8.5 8.51422 8.5 9.34265C8.5 10.1711 9.17157 10.8427 10 10.8427ZM16.5 9.34265C16.5 10.1711 15.8284 10.8427 15 10.8427C14.1716 10.8427 13.5 10.1711 13.5 9.34265C13.5 8.51422 14.1716 7.84265 15 7.84265C15.8284 7.84265 16.5 8.51422 16.5 9.34265Z" fill="white"/>
</svg>
