<svg width="6" height="11" viewBox="0 0 6 11" fill="none" xmlns="http://www.w3.org/2000/svg">
<path d="M2.97576 11C2.67879 11 2.48485 10.8045 2.48485 10.4828V9.77007C1.23636 9.61869 0.309091 8.9375 0.0545455 8.01032C0.0181818 7.9031 0 7.79587 0 7.69495C0 7.34174 0.236364 7.10206 0.6 7.10206C0.921212 7.10206 1.09091 7.3039 1.2 7.57511C1.44848 8.28154 2.06667 8.65367 3.0303 8.65367C4.05455 8.65367 4.71515 8.22477 4.71515 7.41112C4.71515 6.72362 4.11515 6.37041 3.15758 6.13073L2.32727 5.9289C1.01212 5.61353 0.115152 4.79989 0.115152 3.63933C0.115152 2.23911 1.17576 1.40654 2.48485 1.24255V0.517202C2.48485 0.18922 2.67879 0 2.97576 0C3.27273 0 3.47273 0.18922 3.47273 0.517202V1.23624C4.6303 1.38131 5.50303 2.04358 5.76364 3.0086C5.79394 3.11583 5.81212 3.22936 5.81212 3.33028C5.81212 3.66456 5.57576 3.87271 5.23636 3.87271C4.90909 3.87271 4.74545 3.6961 4.61818 3.41858C4.34545 2.70585 3.85455 2.35264 2.98788 2.35264C2.00606 2.35264 1.41212 2.81307 1.41212 3.53842C1.41212 4.16284 2 4.54128 2.81212 4.73681L3.61212 4.93234C5.13939 5.29817 6 6.07397 6 7.29128C6 8.83028 4.81212 9.63762 3.47273 9.78268V10.4828C3.47273 10.8045 3.27273 11 2.97576 11Z" fill="white"/>
</svg>
