<svg width="24" height="24" viewBox="0 0 24 24" fill="none" xmlns="http://www.w3.org/2000/svg">
<path fill-rule="evenodd" clip-rule="evenodd" d="M1.80001 12C1.80001 6.36671 6.36671 1.80001 12 1.80001C17.6333 1.80001 22.2 6.36671 22.2 12C22.2 17.6333 17.6333 22.2 12 22.2C6.36671 22.2 1.80001 17.6333 1.80001 12ZM12 0.200012C5.48305 0.200012 0.200012 5.48305 0.200012 12C0.200012 18.517 5.48305 23.8 12 23.8C18.517 23.8 23.8 18.517 23.8 12C23.8 5.48305 18.517 0.200012 12 0.200012ZM12.0001 13.25C12.6904 13.25 13.2501 12.6904 13.2501 12C13.2501 11.3097 12.6904 10.75 12.0001 10.75C11.3097 10.75 10.7501 11.3097 10.7501 12C10.7501 12.6904 11.3097 13.25 12.0001 13.25ZM8.25006 12C8.25006 12.6904 7.69042 13.25 7.00006 13.25C6.30971 13.25 5.75006 12.6904 5.75006 12C5.75006 11.3097 6.30971 10.75 7.00006 10.75C7.69042 10.75 8.25006 11.3097 8.25006 12ZM17.0001 13.25C17.6904 13.25 18.2501 12.6904 18.2501 12C18.2501 11.3097 17.6904 10.75 17.0001 10.75C16.3097 10.75 15.7501 11.3097 15.7501 12C15.7501 12.6904 16.3097 13.25 17.0001 13.25Z" fill="#007AFF"/>
</svg>
