<svg width="17" height="15" viewBox="0 0 17 15" fill="none" xmlns="http://www.w3.org/2000/svg">
<path fill-rule="evenodd" clip-rule="evenodd" d="M3.43112 6.51533C3.43112 3.95648 5.50548 1.88213 8.06432 1.88213C10.6232 1.88213 12.6975 3.95649 12.6975 6.51534V7.21733C12.6975 7.6438 12.3518 7.98953 11.9253 7.98953H4.20332C3.77685 7.98953 3.43112 7.6438 3.43112 7.21733V6.51533ZM2.20888 5.81333C2.55594 2.88753 5.04515 0.61853 8.06432 0.61853C11.0835 0.61853 13.5727 2.88753 13.9198 5.81333H13.9611V6.51534V7.21733V10.9703L13.9612 11.0753C13.9615 11.7266 13.9617 12.195 13.8372 12.5948C13.5695 13.4538 12.8968 14.1265 12.0378 14.3942C11.638 14.5188 11.1696 14.5185 10.5183 14.5182L10.4133 14.5181H5.71532L5.61039 14.5182C4.95907 14.5185 4.49063 14.5188 4.09082 14.3942C3.23182 14.1265 2.55916 13.4538 2.29149 12.5948C2.1669 12.195 2.16715 11.7266 2.16749 11.0753L2.16752 10.9703V7.21733V6.51533V5.81333H2.20888ZM3.43112 9.10157V10.9703C3.43112 11.7712 3.43833 12.0278 3.49787 12.2189C3.64201 12.6815 4.0042 13.0436 4.46675 13.1878C4.65781 13.2473 4.91444 13.2545 5.71532 13.2545H10.4133C11.2142 13.2545 11.4708 13.2473 11.6619 13.1878C12.1244 13.0436 12.4866 12.6815 12.6308 12.2189C12.6903 12.0278 12.6975 11.7712 12.6975 10.9703V9.10157C12.4594 9.19927 12.1986 9.25313 11.9253 9.25313H4.20332C3.93 9.25313 3.66925 9.19927 3.43112 9.10157ZM0.693323 6.58553C1.04226 6.58553 1.32512 6.8684 1.32512 7.21733V10.7273C1.32512 11.0763 1.04226 11.3591 0.693323 11.3591C0.34439 11.3591 0.0615234 11.0763 0.0615234 10.7273V7.21733C0.0615234 6.8684 0.34439 6.58553 0.693323 6.58553ZM16.0671 7.21733C16.0671 6.8684 15.7843 6.58553 15.4353 6.58553C15.0864 6.58553 14.8035 6.8684 14.8035 7.21733V10.7273C14.8035 11.0763 15.0864 11.3591 15.4353 11.3591C15.7843 11.3591 16.0671 11.0763 16.0671 10.7273V7.21733ZM5.60732 5.28683C5.60732 4.99605 5.84305 4.76033 6.13382 4.76033C6.4246 4.76033 6.66032 4.99605 6.66032 5.28683V5.98883C6.66032 6.27961 6.4246 6.51533 6.13382 6.51533C5.84305 6.51533 5.60732 6.27961 5.60732 5.98883V5.28683ZM9.99482 4.76033C9.70405 4.76033 9.46832 4.99605 9.46832 5.28683V5.98883C9.46832 6.27961 9.70405 6.51533 9.99482 6.51533C10.2856 6.51533 10.5213 6.27961 10.5213 5.98883V5.28683C10.5213 4.99605 10.2856 4.76033 9.99482 4.76033Z" fill="white"/>
</svg>
